<svg xmlns="http://www.w3.org/2000/svg" width="33" height="33" fill="none" viewBox="0 0 33 33"><path fill="#fff" fill-rule="evenodd" d="M16.6 0.399994C7.60001 0.399994 0.300003 7.70001 0.300003 16.7C0.300003 23.9 4.99999 30 11.4 32.2C12.2 32.3 12.5 31.8 12.5 31.4C12.5 31 12.5 30 12.5 28.6C8 29.6 7 26.4 7 26.4C6.3 24.5 5.2 24 5.2 24C3.7 23 5.3 23 5.3 23C6.9 23.1 7.8 24.7 7.8 24.7C9.3 27.2 11.6 26.5 12.5 26.1C12.6 25 13.1 24.3 13.5 23.9C9.9 23.5 6.10001 22.1 6.10001 15.8C6.10001 14 6.7 12.6 7.8 11.4C7.6 11 7.1 9.30001 8 7.10001C8 7.10001 9.4 6.69999 12.5 8.79999C13.8 8.39999 15.2 8.29999 16.6 8.29999C18 8.29999 19.4 8.49999 20.7 8.79999C23.8 6.69999 25.2 7.10001 25.2 7.10001C26.1 9.30001 25.5 11 25.4 11.4C26.4 12.5 27.1 14 27.1 15.8C27.1 22.1 23.3 23.4 19.7 23.8C20.3 24.3 20.8 25.3 20.8 26.8C20.8 29 20.8 30.7 20.8 31.3C20.8 31.7 21.1 32.2 21.9 32.1C28.4 29.9 33 23.8 33 16.6C32.9 7.70001 25.6 0.399994 16.6 0.399994Z" clip-rule="evenodd"/></svg>