<svg xmlns="http://www.w3.org/2000/svg" width="99" height="64" fill="none" viewBox="0 0 99 64"><path fill="#fff" d="M16.0926 53.4736C20.7852 52.6178 23.7421 50.0201 24.9555 46.1394L25.4291 50.9932L29.5019 50.2504L29.4279 32.7903L15.7486 35.2852L15.7511 39.8132L24.2509 38.263L24.2514 39.2692C24.2611 42.3322 22.823 47.4889 16.4482 48.6516C11.9327 49.4751 8.62722 47.6536 7.39189 40.8804C6.19693 34.3285 7.41176 25.6903 15.2918 24.2531C19.276 23.5265 22.1547 25.0141 23.3845 28.9981L28.9619 26.9745C27.1032 21.0468 21.9498 18.3731 14.8224 19.673C2.38258 21.9418 -0.219382 33.2573 1.37928 42.0227C3.1475 51.7178 9.45215 54.6847 16.0926 53.4736Z"/><path fill="#fff" d="M38.7999 15.3914L33.4875 16.3603L33.6304 49.4974L38.987 48.5204L38.7999 15.3914Z"/><path fill="#fff" d="M43.6235 21.0071L49.3786 19.9574L49.3433 14.2461L43.6325 15.2876L43.6235 21.0071ZM43.9923 47.6076L49.3046 46.6387L49.2519 23.7772L43.9395 24.746L43.9923 47.6076Z"/><path fill="#fff" d="M62.1633 44.8424C65.2179 44.2853 67.6277 42.199 68.5961 39.2322L68.6184 43.1162L73.6651 42.1957L73.4779 9.06671L68.1656 10.0356L68.2214 23.8853C66.5133 21.0406 63.5105 20.6277 60.8543 21.1122C53.1071 22.5251 51.534 30.9542 52.6239 36.9306C53.9077 43.9695 58.5332 45.5045 62.1633 44.8424ZM63.634 40.3659C61.6861 40.7211 59.0536 40.3321 58.1735 35.5067C57.5195 31.9209 57.7899 25.8793 62.6153 24.9993C65.4043 24.4906 68.4077 25.9098 68.3907 31.5849L68.3996 33.1385C68.3973 36.3866 67.1756 39.7199 63.634 40.3659Z"/><path fill="#fff" d="M82.0947 30.595L97.6777 27.7529C97.9143 26.2918 97.8169 24.7543 97.5747 23.4262C96.4443 17.2284 91.6456 15.4963 86.5546 16.4248C78.0106 17.9831 75.8936 25.688 77.0159 31.8415C78.445 39.6772 84.4106 40.7849 89.0589 39.9371C93.84 39.0651 96.6318 36.3145 97.6278 32.2448L93.3406 31.0598C92.6498 33.7931 91.266 35.2348 88.6098 35.7192C85.5552 36.2763 82.874 35.1186 82.1028 30.6393L82.0947 30.595ZM87.0154 19.9545C89.5388 19.4942 91.8455 20.3543 92.4188 23.4975C92.5318 24.1172 92.5482 24.7089 92.5243 25.0792L81.7225 27.0493C81.8453 23.459 83.5181 20.5923 87.0154 19.9545Z"/></svg>