<svg xmlns="http://www.w3.org/2000/svg" width="64" height="64" fill="none" viewBox="0 0 64 64"><path fill="#fff" d="M17.125 57.9062H24.25C26.9688 57.9062 28.4062 56.4688 28.4062 53.7188V11.1562C28.4062 8.3125 26.9688 7 24.25 7H17.125C14.4062 7 12.9688 8.4375 12.9688 11.1562V53.7188C12.9688 56.4688 14.4062 57.9062 17.125 57.9062ZM39.8438 57.9062H46.9375C49.6875 57.9062 51.0938 56.4688 51.0938 53.7188V11.1562C51.0938 8.3125 49.6875 7 46.9375 7H39.8438C37.0938 7 35.6562 8.4375 35.6562 11.1562V53.7188C35.6562 56.4688 37.0938 57.9062 39.8438 57.9062Z"/></svg>